# xmcd
#
# Track frame offsets:
#	150
#	16566
#	31447
#	45309
#	61283
#	78010
#	93590
#	106861
#	119238
#	131471
#	144651
#	157550
#	168241
#	180760
#	193146
#	204213
#	214832
#	225310
#	237097
#	248995
#	260377
#	273257
#	286979
#	300531
#	313801
#
# Disc length: 4345 seconds
# Revision: 0
# Processed by: cddbd v1.5.2PL0 Copyright (c) Steve Scherf et al.
# Submitted via: dBpowerAMP V12.0
#
DISCID=4010f719
DTITLE=Cecil Gant - The Complete Recordings Vol. 1: 1944
DYEAR=1944
DGENRE=Rhythm And Blues
TTITLE0=I Wonder
TTITLE1=Last Goodbye
TTITLE2=So Soft And Mellow
TTITLE3=It's All Over
TTITLE4=Goodbye Baby
TTITLE5=Original Cecils Boogie
TTITLE6=I Wonder
TTITLE7=Cecil Boogie
TTITLE8=I Wonder
TTITLE9=I Wonder
TTITLE10=I Wonder
TTITLE11=Cecil Boogie
TTITLE12=Cecil Boogie
TTITLE13=Cecil Boogie
TTITLE14=Wake- Up, Cecil, Wake-Up
TTITLE15=Wake- Up, Cecil, Wake-Up
TTITLE16=Wake- Up, Cecil, Wake-Up
TTITLE17=You're Going To Cry
TTITLE18=Cecil Knows Better Now
TTITLE19=Cecil's Mop Mop
TTITLE20=Boogie Blues
TTITLE21=Boogie Blues
TTITLE22=Put Another Chair At The Table
TTITLE23=Put Another Chair At The Table
TTITLE24=Cecil Boogie No. 2
EXTD=
EXTT0=
EXTT1=
EXTT2=
EXTT3=
EXTT4=
EXTT5=
EXTT6=
EXTT7=
EXTT8=
EXTT9=
EXTT10=
EXTT11=
EXTT12=
EXTT13=
EXTT14=
EXTT15=
EXTT16=
EXTT17=
EXTT18=
EXTT19=
EXTT20=
EXTT21=
EXTT22=
EXTT23=
EXTT24=
PLAYORDER=
